<?xml version="1.0" encoding="UTF-8" standalone="no"?>
<!DOCTYPE svg PUBLIC "-//W3C//DTD SVG 1.1//EN" "http://www.w3.org/Graphics/SVG/1.1/DTD/svg11.dtd">
<!-- Created with Linearity Curve (http://linearity.io/curve) -->
<svg height="1080.0pt" stroke-miterlimit="10" style="fill-rule:nonzero;clip-rule:evenodd;stroke-linecap:round;stroke-linejoin:round;" version="1.1" viewBox="0 0 1080 1080" width="1080.0pt" xml:space="preserve" xmlns="http://www.w3.org/2000/svg" xmlns:xlink="http://www.w3.org/1999/xlink">
<defs/>
<g id="Layer-2">
<g opacity="1">
<g opacity="1">
<path d="M285.236 540C285.236 406.151 399.298 297.645 540 297.645C680.702 297.645 794.764 406.151 794.764 540C794.764 673.849 680.702 782.355 540 782.355C399.298 782.355 285.236 673.849 285.236 540Z" fill="#9fe5ff" fill-rule="nonzero" opacity="1" stroke="#000000" stroke-linecap="butt" stroke-linejoin="miter" stroke-width="25"/>
</g>
<g opacity="1">
<path d="M459.96 381.694L631.269 381.694L631.269 399.721L459.96 399.721L459.96 381.694Z" fill="#6dcbff" fill-rule="nonzero" opacity="1" stroke="#000000" stroke-linecap="butt" stroke-linejoin="round" stroke-width="13.9406"/>
<path d="M460.035 400.325L436.51 431.692L412.985 463.058L441.136 463.058L469.287 463.058L527.393 463.058L585.5 463.058L609.025 431.692L632.55 400.325L546.292 400.325L460.035 400.325Z" fill="#6dcbff" fill-rule="nonzero" opacity="1" stroke="#000000" stroke-linecap="butt" stroke-linejoin="round" stroke-width="13.4759"/>
<path d="M412.985 463.058L412.985 698.306L585.5 698.306L585.5 463.058L412.985 463.058Z" fill="#6dcbff" fill-rule="nonzero" opacity="1" stroke="#000000" stroke-linecap="butt" stroke-linejoin="round" stroke-width="13.9406"/>
<path d="M631.647 397.479L663.813 446.51L584.5 463.058L631.647 397.479Z" fill="#6dcbff" fill-rule="nonzero" opacity="1" stroke="#000000" stroke-linecap="butt" stroke-linejoin="round" stroke-width="13"/>
<path d="M663.916 447.375L663.916 670.425L585.5 698.306L585.5 463.058L663.916 447.375Z" fill="#6dcbff" fill-rule="nonzero" opacity="1" stroke="#000000" stroke-linecap="butt" stroke-linejoin="round" stroke-width="13.9406"/>
<path d="M421.834 562.688C421.834 562.688 445.209 540.905 459.298 568.787C473.387 596.668 469.444 617.45 484.273 617.45C499.103 617.45 492.599 574.163 517.574 574.163C542.55 574.163 536.594 597.064 548.046 607.156C564.298 621.478 576.371 596.668 576.371 596.668L576.371 680.312L421.834 680.312L421.834 562.688Z" fill="#ffffff" fill-rule="nonzero" opacity="1" stroke="#ffffff" stroke-linecap="butt" stroke-linejoin="round" stroke-width="4.83552"/>
<path d="M594.468 595.948C594.468 572.794 611.391 594.913 621.623 590.349C631.855 585.785 632.447 576.445 638.82 572.794C649.093 566.909 654.49 576.097 654.49 576.097L654.49 656.235L594.468 677.774C594.468 677.774 594.468 619.102 594.468 595.948Z" fill="#ffffff" fill-rule="nonzero" opacity="1" stroke="#ffffff" stroke-linecap="butt" stroke-linejoin="round" stroke-width="4.83552"/>
<text fill="#00669c" font-family="Helvetica-Bold" font-size="46.6726" opacity="1" stroke="none" text-anchor="start" transform="matrix(1 0 0 1 436.266 496.892)" x="0" y="0">
<tspan textLength="129.672" x="0" y="35.9388"><![CDATA[SUSU]]></tspan>
</text>
</g>
</g>
</g>
</svg>
