<?xml version="1.0" encoding="UTF-8" standalone="no"?>
<!DOCTYPE svg PUBLIC "-//W3C//DTD SVG 1.1//EN" "http://www.w3.org/Graphics/SVG/1.1/DTD/svg11.dtd">
<!-- Created with Linearity Curve (http://linearity.io/curve) -->
<svg height="1080.0pt" stroke-miterlimit="10" style="fill-rule:nonzero;clip-rule:evenodd;stroke-linecap:round;stroke-linejoin:round;" version="1.1" viewBox="0 0 1080 1080" width="1080.0pt" xml:space="preserve" xmlns="http://www.w3.org/2000/svg" xmlns:xlink="http://www.w3.org/1999/xlink">
<defs/>
<g id="Layer-1"/>
<g id="Biji">
<g opacity="1">
<path d="M542.33 179.155L825.086 751.723C825.086 751.723 684.791 808.98 542.33 808.98C399.87 808.98 255.245 751.723 255.245 751.723L542.33 179.155Z" fill="#ea2f44" fill-rule="nonzero" opacity="1" stroke="#ffffff" stroke-linecap="butt" stroke-linejoin="round" stroke-width="30"/>
<path d="M247.991 766.746L211.658 838.972C211.658 838.972 358.587 900.845 542.33 900.845C726.074 900.845 868.342 838.972 868.342 838.972L832.531 766.746C832.531 766.746 684.791 829.06 542.33 829.06C399.87 829.06 247.991 766.746 247.991 766.746Z" fill="#37791c" fill-rule="nonzero" opacity="1" stroke="#ffffff" stroke-linecap="butt" stroke-linejoin="round" stroke-width="30"/>
<path d="M272.222 717.586L247.991 766.746C247.991 766.746 393.193 829.06 542.33 829.06C691.468 829.06 832.531 766.746 832.531 766.746L808.378 717.586C808.378 717.586 691.602 778.988 542.33 778.988C393.059 778.988 272.222 717.586 272.222 717.586Z" fill="#e5ffdb" fill-rule="nonzero" opacity="1" stroke="#ffffff" stroke-linecap="butt" stroke-linejoin="round" stroke-width="30"/>
<path d="M524.664 392.197C524.664 383.508 539.646 348.672 542.33 348.672C545.015 348.672 559.996 384.276 559.996 392.197C559.996 400.118 551.163 406.041 542.33 406.041C533.497 406.041 524.664 400.886 524.664 392.197Z" fill="#000000" fill-rule="nonzero" opacity="1" stroke="none"/>
<path d="M597.974 524.35C597.974 515.661 612.955 480.825 615.64 480.825C618.324 480.825 633.305 516.429 633.305 524.35C633.305 532.271 624.473 538.194 615.64 538.194C606.807 538.194 597.974 533.039 597.974 524.35Z" fill="#000000" fill-rule="nonzero" opacity="1" stroke="none"/>
<path d="M524.664 615.534C524.664 606.845 539.646 572.009 542.33 572.009C545.015 572.009 559.996 607.613 559.996 615.534C559.996 623.455 551.163 629.378 542.33 629.378C533.497 629.378 524.664 624.223 524.664 615.534Z" fill="#000000" fill-rule="nonzero" opacity="1" stroke="none"/>
<path d="M412.02 701.587C412.02 692.898 427.002 658.062 429.686 658.062C432.37 658.062 447.352 693.666 447.352 701.587C447.352 709.508 438.519 715.431 429.686 715.431C420.853 715.431 412.02 710.276 412.02 701.587Z" fill="#000000" fill-rule="nonzero" opacity="1" stroke="none"/>
<path d="M633.305 701.587C633.305 692.898 648.287 658.062 650.971 658.062C653.656 658.062 668.637 693.666 668.637 701.587C668.637 709.508 659.804 715.431 650.971 715.431C642.138 715.431 633.305 710.276 633.305 701.587Z" fill="#000000" fill-rule="nonzero" opacity="1" stroke="none"/>
<path d="M447.352 524.35C447.352 515.661 462.333 480.825 465.018 480.825C467.702 480.825 482.684 516.429 482.684 524.35C482.684 532.271 473.851 538.194 465.018 538.194C456.185 538.194 447.352 533.039 447.352 524.35Z" fill="#000000" fill-rule="nonzero" opacity="1" stroke="none"/>
</g>
</g>
</svg>
