<?xml version="1.0" encoding="UTF-8" standalone="no"?>
<!DOCTYPE svg PUBLIC "-//W3C//DTD SVG 1.1//EN" "http://www.w3.org/Graphics/SVG/1.1/DTD/svg11.dtd">
<!-- Created with Linearity Curve (http://linearity.io/curve) -->
<svg height="1080.0pt" stroke-miterlimit="10" style="fill-rule:nonzero;clip-rule:evenodd;stroke-linecap:round;stroke-linejoin:round;" version="1.1" viewBox="0 0 1080 1080" width="1080.0pt" xml:space="preserve" xmlns="http://www.w3.org/2000/svg" xmlns:xlink="http://www.w3.org/1999/xlink">
<defs/>
<g id="Layer-1"/>
<g id="Layer-2">
<g opacity="1">
<g opacity="1">
<path d="M285.236 540C285.236 406.151 399.298 297.645 540 297.645C680.702 297.645 794.764 406.151 794.764 540C794.764 673.849 680.702 782.355 540 782.355C399.298 782.355 285.236 673.849 285.236 540Z" fill="#ff7a89" fill-rule="nonzero" opacity="1" stroke="#000000" stroke-linecap="butt" stroke-linejoin="miter" stroke-width="25"/>
</g>
<g opacity="1">
<path d="M469.087 364.733L686.343 571.481C686.343 571.481 633.739 619.412 570.924 642.446C508.108 665.48 435.079 663.618 435.079 663.618L469.087 364.733Z" fill="#ea2f44" fill-rule="nonzero" opacity="1" stroke="#000000" stroke-linecap="butt" stroke-linejoin="round" stroke-width="15"/>
<path d="M434.31 671.415L429.967 709.137C429.967 709.137 504.758 712.662 585.777 682.953C666.797 653.243 719.523 602.958 719.523 602.958L692.055 576.901C692.055 576.901 636.986 628.265 574.17 651.3C511.354 674.334 434.31 671.415 434.31 671.415Z" fill="#37791c" fill-rule="nonzero" opacity="1" stroke="#000000" stroke-linecap="butt" stroke-linejoin="round" stroke-width="15"/>
<path d="M437.046 645.821L434.31 671.415C434.31 671.415 508.41 675.414 574.17 651.3C639.93 627.186 692.055 576.901 692.055 576.901L673.456 559.13C673.456 559.13 631.893 605.086 566.074 629.222C500.255 653.357 437.046 645.821 437.046 645.821Z" fill="#e5ffdb" fill-rule="nonzero" opacity="1" stroke="#000000" stroke-linecap="butt" stroke-linejoin="round" stroke-width="11"/>
<path d="M495.744 461.528C494.339 457.696 495.313 439.913 496.496 439.479C497.68 439.045 510.043 452.322 511.323 455.815C512.604 459.307 509.667 463.347 505.772 464.775C501.877 466.204 497.149 465.359 495.744 461.528Z" fill="#000000" fill-rule="nonzero" opacity="1" stroke="none"/>
<path d="M549.437 507.945C548.032 504.114 549.005 486.331 550.189 485.897C551.372 485.463 563.735 498.74 565.016 502.233C566.297 505.725 563.36 509.765 559.465 511.193C555.57 512.621 550.842 511.777 549.437 507.945Z" fill="#000000" fill-rule="nonzero" opacity="1" stroke="none"/>
<path d="M531.856 560.005C530.451 556.174 531.424 538.391 532.608 537.957C533.791 537.523 546.154 550.8 547.435 554.292C548.715 557.785 545.778 561.825 541.884 563.253C537.989 564.681 533.261 563.836 531.856 560.005Z" fill="#000000" fill-rule="nonzero" opacity="1" stroke="none"/>
<path d="M496.101 616.163C494.696 612.331 495.669 594.548 496.853 594.114C498.036 593.68 510.399 606.957 511.68 610.45C512.96 613.942 510.023 617.982 506.129 619.41C502.234 620.839 497.506 619.994 496.101 616.163Z" fill="#000000" fill-rule="nonzero" opacity="1" stroke="none"/>
<path d="M593.673 580.383C592.268 576.551 593.242 558.769 594.425 558.335C595.609 557.901 607.972 571.177 609.252 574.67C610.533 578.163 607.596 582.202 603.701 583.631C599.807 585.059 595.078 584.214 593.673 580.383Z" fill="#000000" fill-rule="nonzero" opacity="1" stroke="none"/>
<path d="M483.022 532.299C481.617 528.468 482.591 510.685 483.774 510.251C484.958 509.817 497.321 523.094 498.601 526.587C499.882 530.079 496.945 534.119 493.05 535.547C489.155 536.975 484.427 536.131 483.022 532.299Z" fill="#000000" fill-rule="nonzero" opacity="1" stroke="none"/>
</g>
</g>
</g>
</svg>
