<?xml version="1.0" encoding="UTF-8" standalone="no"?>
<!DOCTYPE svg PUBLIC "-//W3C//DTD SVG 1.1//EN" "http://www.w3.org/Graphics/SVG/1.1/DTD/svg11.dtd">
<!-- Created with Linearity Curve (http://linearity.io/curve) -->
<svg height="1080.0pt" stroke-miterlimit="10" style="fill-rule:nonzero;clip-rule:evenodd;stroke-linecap:round;stroke-linejoin:round;" version="1.1" viewBox="0 0 1080 1080" width="1080.0pt" xml:space="preserve" xmlns="http://www.w3.org/2000/svg" xmlns:xlink="http://www.w3.org/1999/xlink">
<defs/>
<g id="Layer-2">
<g opacity="1">
<g opacity="1">
<path d="M285.236 540C285.236 406.151 399.298 297.645 540 297.645C680.702 297.645 794.764 406.151 794.764 540C794.764 673.849 680.702 782.355 540 782.355C399.298 782.355 285.236 673.849 285.236 540Z" fill="#f29a45" fill-rule="nonzero" opacity="1" stroke="#000000" stroke-linecap="butt" stroke-linejoin="miter" stroke-width="25"/>
</g>
<g opacity="1">
<path d="M641.19 585.726C641.19 585.726 633.438 600.501 620.69 602.989C607.388 605.585 592.246 600.617 592.246 600.617C592.246 600.617 597.648 645.171 586.697 650.307C585.003 651.102 562.615 623.968 523.466 606.999C500.323 596.968 454.326 590.294 431.878 577.564C371.458 543.301 350.171 457.489 407.216 405.826C433.578 381.951 473.459 368.734 504.654 378.753C544.212 391.457 562.389 422.4 569.08 437.538C575.771 452.675 604.143 533.991 608.132 542.07C624.493 575.206 641.19 585.726 641.19 585.726Z" fill="#c66a11" fill-rule="nonzero" opacity="1" stroke="#000000" stroke-linecap="butt" stroke-linejoin="round" stroke-width="15.0077"/>
<path d="M495.337 399.062C525.834 407.008 542.373 435.849 542.373 435.849" fill="none" opacity="1" stroke="#000000" stroke-linecap="butt" stroke-linejoin="round" stroke-width="5.08173"/>
<path d="M503.504 536.788C503.867 532.433 500.797 528.622 496.648 528.276C492.498 527.93 488.839 531.18 488.476 535.535C488.113 539.889 491.183 543.7 495.333 544.046C499.483 544.392 503.141 541.142 503.504 536.788Z" fill="#874606" fill-rule="nonzero" opacity="1" stroke="#000000" stroke-linecap="butt" stroke-linejoin="round" stroke-width="3.75045"/>
<path d="M522.929 560.286C523.218 556.828 520.781 553.803 517.486 553.528C514.191 553.253 511.287 555.833 510.998 559.291C510.71 562.748 513.147 565.774 516.442 566.048C519.737 566.323 522.641 563.743 522.929 560.286Z" fill="#874606" fill-rule="nonzero" opacity="1" stroke="#000000" stroke-linecap="butt" stroke-linejoin="round" stroke-width="3.08071"/>
<path d="M492.108 564.019C492.396 560.562 489.959 557.537 486.665 557.262C483.37 556.987 480.465 559.567 480.177 563.025C479.889 566.482 482.326 569.507 485.621 569.782C488.915 570.057 491.82 567.477 492.108 564.019Z" fill="#874606" fill-rule="nonzero" opacity="1" stroke="#000000" stroke-linecap="butt" stroke-linejoin="round" stroke-width="3.08071"/>
<path d="M593.895 605.478C593.895 605.478 606.374 606.905 614.744 607.216C623.114 607.527 629.872 601.915 629.872 601.915L663.304 640.404C663.304 640.404 694.953 627.244 700.913 652.594C706.872 677.944 672.154 681.978 672.154 681.978C672.154 681.978 667.368 713.111 644.358 708.634C621.347 704.156 630.808 674.523 630.808 674.523L594.417 637.944L593.895 605.478Z" fill="#fff0e1" fill-rule="nonzero" opacity="1" stroke="#000000" stroke-linecap="butt" stroke-linejoin="round" stroke-width="15.0077"/>
<path d="M550.197 447.261C555.948 456.549 558.007 467.274 558.731 468.594" fill="none" opacity="1" stroke="#000000" stroke-linecap="butt" stroke-linejoin="round" stroke-width="5.08173"/>
</g>
</g>
</g>
</svg>
