<?xml version="1.0" encoding="UTF-8" standalone="no"?>
<!DOCTYPE svg PUBLIC "-//W3C//DTD SVG 1.1//EN" "http://www.w3.org/Graphics/SVG/1.1/DTD/svg11.dtd">
<!-- Created with Linearity Curve (http://linearity.io/curve) -->
<svg height="1080.0pt" stroke-miterlimit="10" style="fill-rule:nonzero;clip-rule:evenodd;stroke-linecap:round;stroke-linejoin:round;" version="1.1" viewBox="0 0 1080 1080" width="1080.0pt" xml:space="preserve" xmlns="http://www.w3.org/2000/svg" xmlns:xlink="http://www.w3.org/1999/xlink">
<defs/>
<g id="Outline--Fill">
<g opacity="1">
<path d="M371.09 198.656L739.743 198.656L739.743 237.449L371.09 237.449L371.09 198.656Z" fill="#6dcbff" fill-rule="nonzero" opacity="1" stroke="#ffffff" stroke-linecap="butt" stroke-linejoin="round" stroke-width="30"/>
<path d="M371.25 238.75L320.625 306.25L270 373.75L330.58 373.75L391.161 373.75L516.205 373.75L641.25 373.75L691.875 306.25L742.5 238.75L556.875 238.75L371.25 238.75Z" fill="#6dcbff" fill-rule="nonzero" opacity="1" stroke="#ffffff" stroke-linecap="butt" stroke-linejoin="round" stroke-width="29"/>
<path d="M270 373.75L270 880L641.25 880L641.25 373.75L270 373.75Z" fill="#6dcbff" fill-rule="nonzero" opacity="1" stroke="#ffffff" stroke-linecap="butt" stroke-linejoin="round" stroke-width="30"/>
<path d="M738.94 234.944L810.083 340.458L634.664 376.069L738.94 234.944Z" fill="#6dcbff" fill-rule="nonzero" opacity="1" stroke="#ffffff" stroke-linecap="butt" stroke-linejoin="round" stroke-width="30"/>
<path d="M810 340L810 820L641.25 880L641.25 373.75L810 340Z" fill="#6dcbff" fill-rule="nonzero" opacity="1" stroke="#ffffff" stroke-linecap="butt" stroke-linejoin="round" stroke-width="30"/>
<path d="M270 588.152C270 588.152 326.154 541.277 360 601.277C393.846 661.277 384.375 706 420 706C455.625 706 440 612.846 500 612.846C560 612.846 545.692 662.13 573.203 683.847C612.246 714.667 641.25 661.277 641.25 661.277L641.25 841.277L270 841.277L270 588.152Z" fill="#ffffff" fill-rule="nonzero" opacity="1" stroke="#ffffff" stroke-linecap="butt" stroke-linejoin="round" stroke-width="10.406"/>
<path d="M641.25 661.01C653.148 617.973 682.922 658.73 713.09 648.676C743.259 638.621 745.004 618.043 763.797 610C794.086 597.037 810 617.277 810 617.277L810 781.282L641.25 841.277C641.25 841.277 629.352 704.046 641.25 661.01Z" fill="#ffffff" fill-rule="nonzero" opacity="1" stroke="#ffffff" stroke-linecap="butt" stroke-linejoin="round" stroke-width="10.406"/>
<text fill="#00669c" font-family="Helvetica-Bold" font-size="100.439" opacity="1" stroke="none" text-anchor="start" transform="matrix(1 0 0 1 320.099 446.561)" x="0" y="0">
<tspan textLength="279.051" x="0" y="77.3398"><![CDATA[SUSU]]></tspan>
</text>
</g>
</g>
</svg>
