<?xml version="1.0" encoding="UTF-8" standalone="no"?>
<!DOCTYPE svg PUBLIC "-//W3C//DTD SVG 1.1//EN" "http://www.w3.org/Graphics/SVG/1.1/DTD/svg11.dtd">
<!-- Created with Linearity Curve (http://linearity.io/curve) -->
<svg height="1080.0pt" stroke-miterlimit="10" style="fill-rule:nonzero;clip-rule:evenodd;stroke-linecap:round;stroke-linejoin:round;" version="1.1" viewBox="0 0 1080 1080" width="1080.0pt" xml:space="preserve" xmlns="http://www.w3.org/2000/svg" xmlns:xlink="http://www.w3.org/1999/xlink">
<defs/>
<g id="Layer-2">
<g opacity="1">
<g opacity="1">
<path d="M285.236 540C285.236 406.151 399.298 297.645 540 297.645C680.702 297.645 794.764 406.151 794.764 540C794.764 673.849 680.702 782.355 540 782.355C399.298 782.355 285.236 673.849 285.236 540Z" fill="#ffffff" fill-rule="nonzero" opacity="1" stroke="#000000" stroke-linecap="butt" stroke-linejoin="miter" stroke-width="25"/>
</g>
<g opacity="1">
<path d="M459.96 381.694L631.269 381.694L631.269 399.721L459.96 399.721L459.96 381.694Z" fill="#a19f9f" fill-rule="nonzero" opacity="1" stroke="#000000" stroke-linecap="butt" stroke-linejoin="round" stroke-width="13.9406"/>
<path d="M460.035 400.325L436.51 431.692L412.985 463.058L441.136 463.058L469.287 463.058L527.393 463.058L585.5 463.058L609.025 431.692L632.55 400.325L546.292 400.325L460.035 400.325Z" fill="#a19f9f" fill-rule="nonzero" opacity="1" stroke="#000000" stroke-linecap="butt" stroke-linejoin="round" stroke-width="13.4759"/>
<path d="M412.985 463.058L412.985 698.306L585.5 698.306L585.5 463.058L412.985 463.058Z" fill="#a19f9f" fill-rule="nonzero" opacity="1" stroke="#000000" stroke-linecap="butt" stroke-linejoin="round" stroke-width="13.9406"/>
<path d="M631.647 397.479L663.813 446.51L584.5 463.058L631.647 397.479Z" fill="#a19f9f" fill-rule="nonzero" opacity="1" stroke="#000000" stroke-linecap="butt" stroke-linejoin="round" stroke-width="13"/>
<path d="M663.916 447.375L663.916 670.425L585.5 698.306L585.5 463.058L663.916 447.375Z" fill="#a19f9f" fill-rule="nonzero" opacity="1" stroke="#000000" stroke-linecap="butt" stroke-linejoin="round" stroke-width="13.9406"/>
<path d="M419.709 562.688C419.709 562.688 443.723 540.905 458.197 568.787C472.671 596.668 468.621 617.45 483.856 617.45C499.091 617.45 492.409 574.163 518.068 574.163C543.727 574.163 537.608 597.064 549.373 607.156C566.07 621.478 578.473 596.668 578.473 596.668L578.473 680.312L419.709 680.312L419.709 562.688Z" fill="#ffffff" fill-rule="nonzero" opacity="1" stroke="none"/>
<path d="M591.943 595.948C591.943 572.794 610.347 594.913 621.474 590.349C632.601 585.785 633.244 576.445 640.176 572.794C651.347 566.909 657.217 576.097 657.217 576.097L657.217 656.235L591.943 677.774C591.943 677.774 591.943 619.102 591.943 595.948Z" fill="#ffffff" fill-rule="nonzero" opacity="1" stroke="none"/>
<text fill="#000000" font-family="Helvetica-Bold" font-size="46.6726" opacity="1" stroke="none" text-anchor="start" transform="matrix(1 0 0 1 436.266 496.892)" x="0" y="0">
<tspan textLength="129.672" x="0" y="35.9388"><![CDATA[SUSU]]></tspan>
</text>
</g>
</g>
</g>
</svg>
