<?xml version="1.0" encoding="UTF-8" standalone="no"?>
<!DOCTYPE svg PUBLIC "-//W3C//DTD SVG 1.1//EN" "http://www.w3.org/Graphics/SVG/1.1/DTD/svg11.dtd">
<!-- Created with Linearity Curve (http://linearity.io/curve) -->
<svg height="1080.0pt" stroke-miterlimit="10" style="fill-rule:nonzero;clip-rule:evenodd;stroke-linecap:round;stroke-linejoin:round;" version="1.1" viewBox="0 0 1080 1080" width="1080.0pt" xml:space="preserve" xmlns="http://www.w3.org/2000/svg" xmlns:xlink="http://www.w3.org/1999/xlink">
<defs/>
<g id="Bone">
<g opacity="1">
<path d="M487.887 637.643C487.887 637.643 540.822 688.025 584.419 746.286C628.015 804.547 662.274 870.687 662.274 870.687L785.487 813.001C785.487 813.001 754.775 740.924 738.894 667.162C723.013 593.399 721.963 517.951 721.963 517.951L687.361 528.006C687.361 528.006 682.382 541.969 672.064 558.521C661.746 575.072 646.089 594.213 646.089 594.213L655.678 694.319L553.365 591.245C553.365 591.245 539.281 608.597 520.143 619.454C501.005 630.312 487.887 637.643 487.887 637.643Z" fill="#4fa929" fill-rule="nonzero" opacity="1" stroke="#ffffff" stroke-linecap="butt" stroke-linejoin="round" stroke-width="30"/>
<path d="M297.977 444.326C297.977 444.326 206.25 507.661 252.113 576.43C297.977 645.198 385.871 591.245 385.871 591.245C385.871 591.245 432.291 634.79 474.165 634.79C516.038 634.79 553.365 591.245 553.365 591.245C553.365 591.245 609.289 608.118 642.554 591.245C675.819 574.371 686.425 523.752 686.425 523.752C686.425 523.752 735.681 517.104 758.549 491.039C781.416 464.973 777.894 419.49 777.894 419.49C777.894 419.49 864.023 376.912 829.375 300.758C794.728 224.603 709.352 253.647 709.352 253.647C709.352 253.647 700.958 209.163 642.554 195.82C584.15 182.478 553.365 224.003 553.365 224.003C553.365 224.003 502.435 170.74 434.246 195.82C366.058 220.9 371.824 300.758 371.824 300.758C371.824 300.758 324.706 300.758 297.977 340.61C271.248 380.463 297.977 444.326 297.977 444.326Z" fill="#206c00" fill-rule="nonzero" opacity="1" stroke="#ffffff" stroke-linecap="butt" stroke-linejoin="round" stroke-width="30"/>
<path d="M403.224 450.52C403.224 450.52 453.822 465.64 486.218 450.52C518.613 435.399 532.806 391.211 532.806 391.211C532.806 391.211 522.596 451.508 490.887 465.891C459.179 480.275 403.224 450.52 403.224 450.52Z" fill="#113a00" fill-rule="nonzero" opacity="0.561453" stroke="none"/>
<path d="M528.67 408.473C528.67 408.473 541.636 423.594 574.031 408.473C606.427 393.353 606.985 367.126 606.985 367.126C606.985 367.126 610.409 406.726 578.701 421.11C546.993 435.494 528.67 408.473 528.67 408.473Z" fill="#113a00" fill-rule="nonzero" opacity="0.561453" stroke="none"/>
</g>
</g>
</svg>
