<?xml version="1.0" encoding="UTF-8" standalone="no"?>
<!DOCTYPE svg PUBLIC "-//W3C//DTD SVG 1.1//EN" "http://www.w3.org/Graphics/SVG/1.1/DTD/svg11.dtd">
<!-- Created with Linearity Curve (http://linearity.io/curve) -->
<svg height="1080.0pt" stroke-miterlimit="10" style="fill-rule:nonzero;clip-rule:evenodd;stroke-linecap:round;stroke-linejoin:round;" version="1.1" viewBox="0 0 1080 1080" width="1080.0pt" xml:space="preserve" xmlns="http://www.w3.org/2000/svg" xmlns:xlink="http://www.w3.org/1999/xlink">
<defs>
<path d="M356.349 518.562C360.644 509.802 395.318 492.923 402.58 496.056C409.843 499.19 410.262 547.02 410.262 547.02C410.262 547.02 352.054 527.321 356.349 518.562Z" id="Fill"/>
<path d="M723.877 518.562C723.877 507.905 678.813 495.673 678.813 495.673L678.813 538.298C678.813 538.298 723.877 529.218 723.877 518.562Z" id="Fill_2"/>
<path d="M537.054 574.409C470.937 574.409 377.787 556.903 377.787 538.521C377.787 520.14 398.405 516.653 398.405 516.653C398.405 516.653 396.999 511.294 396.614 504.793C396.229 498.292 397.931 491.716 402.014 487.149C406.096 482.581 412.558 480.022 419.067 479.671C425.576 479.321 431.064 480.113 431.064 480.113C431.064 480.113 429.853 474.56 429.648 467.863C429.442 461.167 430.777 454.927 434.801 450.353C438.825 445.778 445.538 442.868 451.78 442.703C458.021 442.537 463.256 443.515 463.256 443.515C463.256 443.515 463.505 437.948 465.174 431.364C466.843 424.78 469.398 417.713 475.079 413.646C480.76 409.579 489.567 408.511 496.419 408.994C503.271 409.478 508.704 410.978 508.704 410.978C508.704 410.978 512.01 406.216 517.207 401.455C522.404 396.694 530.025 392.466 537.588 392.466C545.151 392.466 552.656 396.694 558.803 401.455C564.951 406.216 569.208 410.978 569.208 410.978C569.208 410.978 574.758 409.211 581.779 408.461C588.8 407.711 597.291 409.045 603.172 413.112C609.054 417.18 612.326 423.98 614.127 430.831C615.929 437.681 616.26 443.515 616.26 443.515C616.26 443.515 621.809 442.937 628.41 443.503C635.012 444.069 641.598 446.312 645.808 450.887C650.018 455.461 651.851 462.367 651.564 468.664C651.277 474.96 649.937 480.113 649.937 480.113C649.937 480.113 655.754 479.848 662.579 480.776C669.404 481.705 676.704 484.359 680.739 489.129C684.773 493.9 685.543 500.786 684.77 507.014C683.997 513.241 682.215 518.276 682.215 518.276C682.215 518.276 700.257 521.131 700.257 537.987C700.257 554.844 603.172 574.409 537.054 574.409Z" id="Fill_3"/>
<path d="M356.33 518.562C356.33 518.562 424.093 559.317 540.104 559.317C656.114 559.317 723.877 518.562 723.877 518.562C723.877 518.562 723.877 692.534 541.69 692.534C359.502 692.534 356.33 518.562 356.33 518.562Z" id="Fill_4"/>
</defs>
<g id="Layer-1"/>
<g id="Layer-2">
<g opacity="1">
<path d="M285.236 540C285.236 406.151 399.298 297.645 540 297.645C680.702 297.645 794.764 406.151 794.764 540C794.764 673.849 680.702 782.355 540 782.355C399.298 782.355 285.236 673.849 285.236 540Z" fill="#ffe39b" fill-rule="nonzero" opacity="1" stroke="#000002" stroke-linecap="butt" stroke-linejoin="miter" stroke-width="25"/>
<g opacity="1">
<g opacity="1">
<use fill="#d2a30e" fill-rule="nonzero" stroke="none" xlink:href="#Fill"/>
<mask height="51.3464" id="StrokeMask" maskUnits="userSpaceOnUse" width="54.139" x="356.123" y="495.673">
<rect fill="#000000" height="51.3464" stroke="none" width="54.139" x="356.123" y="495.673"/>
<use fill="#ffffff" fill-rule="evenodd" stroke="none" xlink:href="#Fill"/>
</mask>
<use fill="none" mask="url(#StrokeMask)" stroke="#000000" stroke-linecap="butt" stroke-linejoin="round" stroke-width="16.0138" xlink:href="#Fill"/>
</g>
<g opacity="1">
<use fill="#d2a20e" fill-rule="nonzero" stroke="none" xlink:href="#Fill_2"/>
<mask height="42.6246" id="StrokeMask_2" maskUnits="userSpaceOnUse" width="45.0641" x="678.813" y="495.673">
<rect fill="#000000" height="42.6246" stroke="none" width="45.0641" x="678.813" y="495.673"/>
<use fill="#ffffff" fill-rule="evenodd" stroke="none" xlink:href="#Fill_2"/>
</mask>
<use fill="none" mask="url(#StrokeMask_2)" stroke="#000000" stroke-linecap="butt" stroke-linejoin="round" stroke-width="16.0138" xlink:href="#Fill_2"/>
</g>
<g opacity="1">
<use fill="#fffcf0" fill-rule="nonzero" stroke="none" xlink:href="#Fill_3"/>
<mask height="181.943" id="StrokeMask_3" maskUnits="userSpaceOnUse" width="322.47" x="377.787" y="392.466">
<rect fill="#000000" height="181.943" stroke="none" width="322.47" x="377.787" y="392.466"/>
<use fill="#ffffff" fill-rule="evenodd" stroke="none" xlink:href="#Fill_3"/>
</mask>
<use fill="none" mask="url(#StrokeMask_3)" stroke="#000002" stroke-linecap="butt" stroke-linejoin="round" stroke-width="32" xlink:href="#Fill_3"/>
</g>
<path d="M469.259 486.601C469.259 486.601 474.657 470.772 485.121 465.294C495.586 459.816 511.116 464.689 511.116 464.689C511.116 464.689 498.605 465.2 488.254 470.572C479.745 474.988 469.259 486.601 469.259 486.601Z" fill="#958234" fill-opacity="0.346366" fill-rule="nonzero" opacity="1" stroke="none"/>
<path d="M527.391 434.749C527.391 434.749 541.731 426.144 553.259 428.714C564.788 431.285 573.504 445.031 573.504 445.031C573.504 445.031 563.619 437.346 552.246 434.768C542.896 432.649 527.391 434.749 527.391 434.749Z" fill="#958234" fill-opacity="0.346366" fill-rule="nonzero" opacity="1" stroke="none"/>
<path d="M515.436 531.196C515.436 531.196 526.893 519.013 538.686 518.35C550.479 517.686 562.607 528.542 562.607 528.542C562.607 528.542 551.003 523.837 539.358 524.451C529.784 524.956 515.436 531.196 515.436 531.196Z" fill="#958234" fill-opacity="0.346366" fill-rule="nonzero" opacity="1" stroke="none"/>
<path d="M573.504 496.417C573.504 496.417 583.272 482.841 594.877 480.643C606.482 478.444 619.925 487.623 619.925 487.623C619.925 487.623 607.806 484.474 596.34 486.604C586.914 488.355 573.504 496.417 573.504 496.417Z" fill="#958234" fill-opacity="0.346366" fill-rule="nonzero" opacity="1" stroke="none"/>
<path d="M413.853 510.13C413.853 510.13 429.841 505.224 440.414 510.49C450.986 515.756 456.143 531.195 456.143 531.195C456.143 531.195 448.394 521.359 437.974 516.123C429.408 511.818 413.853 510.13 413.853 510.13Z" fill="#958234" fill-opacity="0.346366" fill-rule="nonzero" opacity="1" stroke="none"/>
<path d="M627.365 534.982C627.365 534.982 631.364 518.743 641.312 512.374C651.259 506.006 667.155 509.508 667.155 509.508C667.155 509.508 654.736 511.106 644.893 517.359C636.801 522.5 627.365 534.982 627.365 534.982Z" fill="#958234" fill-opacity="0.346366" fill-rule="nonzero" opacity="1" stroke="none"/>
<g opacity="1">
<use fill="#ffca26" fill-rule="nonzero" stroke="none" xlink:href="#Fill_4"/>
<mask height="173.972" id="StrokeMask_4" maskUnits="userSpaceOnUse" width="367.547" x="356.33" y="518.562">
<rect fill="#000000" height="173.972" stroke="none" width="367.547" x="356.33" y="518.562"/>
<use fill="#ffffff" fill-rule="evenodd" stroke="none" xlink:href="#Fill_4"/>
</mask>
<use fill="none" mask="url(#StrokeMask_4)" stroke="#000002" stroke-linecap="butt" stroke-linejoin="round" stroke-width="32.0276" xlink:href="#Fill_4"/>
</g>
</g>
</g>
</g>
</svg>
