<?xml version="1.0" encoding="UTF-8" standalone="no"?>
<!DOCTYPE svg PUBLIC "-//W3C//DTD SVG 1.1//EN" "http://www.w3.org/Graphics/SVG/1.1/DTD/svg11.dtd">
<!-- Created with Linearity Curve (http://linearity.io/curve) -->
<svg height="1080.0pt" stroke-miterlimit="10" style="fill-rule:nonzero;clip-rule:evenodd;stroke-linecap:round;stroke-linejoin:round;" version="1.1" viewBox="0 0 1080 1080" width="1080.0pt" xml:space="preserve" xmlns="http://www.w3.org/2000/svg" xmlns:xlink="http://www.w3.org/1999/xlink">
<defs/>
<g id="Layer-1"/>
<g id="Layer-2">
<g opacity="1">
<g opacity="1">
<path d="M285.236 540C285.236 406.151 399.298 297.645 540 297.645C680.702 297.645 794.764 406.151 794.764 540C794.764 673.849 680.702 782.355 540 782.355C399.298 782.355 285.236 673.849 285.236 540Z" fill="#ffffff" fill-rule="nonzero" opacity="1" stroke="#000000" stroke-linecap="butt" stroke-linejoin="miter" stroke-width="25"/>
</g>
<g opacity="1">
<path d="M500.783 592.828C500.783 592.828 527.412 618.173 549.343 647.481C571.274 676.79 588.508 710.062 588.508 710.062L650.491 681.043C650.491 681.043 635.041 644.784 627.052 607.678C619.063 570.571 618.535 532.617 618.535 532.617L601.128 537.675C601.128 537.675 598.623 544.699 593.433 553.026C588.243 561.352 580.367 570.981 580.367 570.981L585.19 621.34L533.721 569.488C533.721 569.488 526.637 578.217 517.009 583.679C507.382 589.14 500.783 592.828 500.783 592.828Z" fill="#a19f9f" fill-rule="nonzero" opacity="1" stroke="#000000" stroke-linecap="butt" stroke-linejoin="round" stroke-width="15.0916"/>
<path d="M405.248 495.58C405.248 495.58 359.104 527.441 382.176 562.035C405.248 596.629 449.463 569.488 449.463 569.488C449.463 569.488 472.815 591.393 493.879 591.393C514.944 591.393 533.721 569.488 533.721 569.488C533.721 569.488 561.854 577.976 578.588 569.488C595.322 560.999 600.657 535.535 600.657 535.535C600.657 535.535 625.436 532.191 636.94 519.079C648.443 505.966 646.671 483.086 646.671 483.086C646.671 483.086 689.999 461.667 672.569 423.357C655.139 385.047 612.191 399.658 612.191 399.658C612.191 399.658 607.968 377.28 578.588 370.568C549.208 363.856 533.721 384.746 533.721 384.746C533.721 384.746 508.101 357.952 473.798 370.568C439.496 383.185 442.397 423.357 442.397 423.357C442.397 423.357 418.694 423.357 405.248 443.405C391.802 463.453 405.248 495.58 405.248 495.58Z" fill="#a19f9f" fill-rule="nonzero" opacity="1" stroke="#000000" stroke-linecap="butt" stroke-linejoin="round" stroke-width="15.0916"/>
<path d="M458.193 498.695C458.193 498.695 483.646 506.302 499.943 498.695C516.239 491.089 523.379 468.86 523.379 468.86C523.379 468.86 518.243 499.192 502.292 506.428C486.341 513.664 458.193 498.695 458.193 498.695Z" fill="#000000" fill-rule="nonzero" opacity="1" stroke="none"/>
<path d="M521.298 477.544C521.298 477.544 527.821 485.151 544.118 477.544C560.414 469.937 560.695 456.744 560.695 456.744C560.695 456.744 562.418 476.665 546.467 483.901C530.516 491.137 521.298 477.544 521.298 477.544Z" fill="#000000" fill-rule="nonzero" opacity="1" stroke="none"/>
</g>
</g>
</g>
</svg>
