<?xml version="1.0" encoding="UTF-8" standalone="no"?>
<!DOCTYPE svg PUBLIC "-//W3C//DTD SVG 1.1//EN" "http://www.w3.org/Graphics/SVG/1.1/DTD/svg11.dtd">
<!-- Created with Linearity Curve (http://linearity.io/curve) -->
<svg height="1080.0pt" stroke-miterlimit="10" style="fill-rule:nonzero;clip-rule:evenodd;stroke-linecap:round;stroke-linejoin:round;" version="1.1" viewBox="0 0 1080 1080" width="1080.0pt" xml:space="preserve" xmlns="http://www.w3.org/2000/svg" xmlns:xlink="http://www.w3.org/1999/xlink">
<defs/>
<g id="Layer-1"/>
<g id="Layer-2">
<g opacity="1">
<path d="M247.835 580.355C243.208 580.355 239.458 584.844 239.458 590.382L239.458 597.416C239.458 602.954 243.947 607.443 249.484 607.443L392.807 607.443C398.344 607.443 402.834 602.954 402.834 597.416L402.834 590.382C402.834 584.844 398.344 580.355 392.807 580.355L247.835 580.355Z" fill="#d9d8d6" fill-rule="nonzero" opacity="1" stroke="#000000" stroke-linecap="butt" stroke-linejoin="round" stroke-width="9"/>
<path d="M683.841 580.541C679.214 580.541 675.463 585.031 675.463 590.568L675.463 597.603C675.463 603.14 679.952 607.629 685.49 607.629L828.812 607.629C834.35 607.629 838.839 603.14 838.839 597.603L838.839 590.568C838.839 585.031 834.35 580.541 828.812 580.541L683.841 580.541Z" fill="#d9d8d6" fill-rule="nonzero" opacity="1" stroke="#000000" stroke-linecap="butt" stroke-linejoin="round" stroke-width="9"/>
<path d="M439.054 580.169C433.515 580.169 429.024 584.66 429.024 590.199L429.024 597.413C429.024 602.952 433.515 607.443 439.054 607.443L640.946 607.443C646.485 607.443 650.976 602.952 650.976 597.413L650.976 590.199C650.976 584.66 646.485 580.169 640.946 580.169L439.054 580.169Z" fill="#d9d8d6" fill-rule="nonzero" opacity="1" stroke="#000000" stroke-linecap="butt" stroke-linejoin="round" stroke-width="9"/>
<path d="M175.159 537.28L175.159 564.472C175.159 577.007 185.321 587.169 197.856 587.169L883.764 587.169C896.3 587.169 906.462 577.007 906.462 564.472L906.462 537.28" fill="#d9d8d6" fill-rule="nonzero" opacity="1" stroke="#000000" stroke-linecap="butt" stroke-linejoin="round" stroke-width="9"/>
<path d="M232.299 481.063C234.526 478.924 237.493 477.73 240.581 477.73L847.526 477.73C850.852 477.73 854.027 479.115 856.289 481.553L903.926 532.896C911.024 540.546 905.599 552.981 895.163 552.981L187.137 552.981C176.371 552.981 171.092 539.865 178.855 532.406L232.299 481.063Z" fill="#d9d8d6" fill-rule="nonzero" opacity="1" stroke="#000000" stroke-linecap="butt" stroke-linejoin="round" stroke-width="9"/>
<path d="M271.914 494.759C272.63 493.818 273.745 493.265 274.928 493.265L409.371 493.265C411.847 493.265 413.656 495.602 413.036 497.999L403.568 534.608C403.135 536.278 401.628 537.446 399.902 537.446L321.859 537.446L247.093 537.446C243.961 537.446 242.183 533.861 244.079 531.368L271.914 494.759Z" fill="#aaa9a7" fill-rule="nonzero" opacity="1" stroke="#000000" stroke-linecap="butt" stroke-linejoin="round" stroke-width="4.00711"/>
<path d="M672.559 497.159C672.4 494.966 674.136 493.099 676.335 493.099L812.101 493.102C813.477 493.102 814.744 493.848 815.412 495.051L835.719 531.657C837.119 534.181 835.294 537.28 832.409 537.28L762.711 537.28L678.985 537.28C677 537.28 675.352 535.747 675.209 533.767L672.559 497.159Z" fill="#aaa9a7" fill-rule="nonzero" opacity="1" stroke="#000000" stroke-linecap="butt" stroke-linejoin="round" stroke-width="4.00711"/>
<path d="M440.714 495.863C441.174 494.229 442.665 493.1 444.362 493.102L644.74 493.262C646.741 493.264 648.395 494.821 648.516 496.818L650.732 533.264C650.864 535.442 649.134 537.28 646.952 537.28L597.442 537.28L540.335 537.28L434.029 537.438C431.518 537.442 429.699 535.045 430.379 532.627L440.714 495.863Z" fill="#aaa9a7" fill-rule="nonzero" opacity="1" stroke="#000000" stroke-linecap="butt" stroke-linejoin="round" stroke-width="4.00711"/>
</g>
</g>
</svg>
