<?xml version="1.0" encoding="UTF-8" standalone="no"?>
<!DOCTYPE svg PUBLIC "-//W3C//DTD SVG 1.1//EN" "http://www.w3.org/Graphics/SVG/1.1/DTD/svg11.dtd">
<!-- Created with Linearity Curve (http://linearity.io/curve) -->
<svg height="1080.0pt" stroke-miterlimit="10" style="fill-rule:nonzero;clip-rule:evenodd;stroke-linecap:round;stroke-linejoin:round;" version="1.1" viewBox="0 0 1080 1080" width="1080.0pt" xml:space="preserve" xmlns="http://www.w3.org/2000/svg" xmlns:xlink="http://www.w3.org/1999/xlink">
<defs/>
<g id="Chicken"/>
<g id="Bone">
<g opacity="1">
<path d="M335.219 590.496C335.219 590.496 348.207 621.215 373.187 628.289C399.255 635.67 430.245 628.289 430.245 628.289C430.245 628.289 412.083 716.146 433.045 728.197C436.287 730.061 485.392 679.728 566.198 652.427C613.966 636.288 706.705 630.633 753.536 609.004C879.589 550.786 936.248 383.377 831.19 270.985C782.642 219.047 705.391 186.094 641.585 200.87C560.672 219.607 519.323 278.228 503.479 307.272C487.636 336.316 417.612 493.589 408.324 509.021C370.228 572.313 335.219 590.496 335.219 590.496Z" fill="#c66a11" fill-rule="nonzero" opacity="1" stroke="#ffffff" stroke-linecap="butt" stroke-linejoin="round" stroke-width="30"/>
<path d="M656.771 242.875C594.699 253.638 556.962 308.344 556.962 308.344" fill="none" opacity="1" stroke="#ffffff" stroke-linecap="butt" stroke-linejoin="round" stroke-width="10.1583"/>
<path d="M617.626 515.877C617.626 507.142 624.374 500.061 632.698 500.061C641.023 500.061 647.771 507.142 647.771 515.877C647.771 524.612 641.023 531.693 632.698 531.693C624.374 531.693 617.626 524.612 617.626 515.877Z" fill="#874606" fill-rule="nonzero" opacity="1" stroke="#ffffff" stroke-linecap="butt" stroke-linejoin="round" stroke-width="7.49708"/>
<path d="M575.026 559.46C575.026 552.525 580.384 546.903 586.993 546.903C593.602 546.903 598.959 552.525 598.959 559.46C598.959 566.395 593.602 572.017 586.993 572.017C580.384 572.017 575.026 566.395 575.026 559.46Z" fill="#874606" fill-rule="nonzero" opacity="1" stroke="#ffffff" stroke-linecap="butt" stroke-linejoin="round" stroke-width="6.15827"/>
<path d="M635.804 572.017C635.804 565.082 641.162 559.46 647.771 559.46C654.38 559.46 659.737 565.082 659.737 572.017C659.737 578.952 654.38 584.574 647.771 584.574C641.162 584.574 635.804 578.952 635.804 572.017Z" fill="#874606" fill-rule="nonzero" opacity="1" stroke="#ffffff" stroke-linecap="butt" stroke-linejoin="round" stroke-width="6.15827"/>
<path d="M426.153 637.698C426.153 637.698 401.055 638.468 384.33 637.698C367.605 636.927 355.075 624.624 355.075 624.624L282.083 695.744C282.083 695.744 221.222 664.271 205.14 713.781C189.057 763.29 257.548 777.093 257.548 777.093C257.548 777.093 261.91 839.907 308.492 834.81C355.075 829.713 341.15 769.109 341.15 769.109L419.719 702.286L426.153 637.698Z" fill="#fff0e1" fill-rule="nonzero" opacity="1" stroke="#ffffff" stroke-linecap="butt" stroke-linejoin="round" stroke-width="30"/>
<path d="M539.482 329.777C526.482 347.325 520.598 368.348 518.938 370.858" fill="none" opacity="1" stroke="#ffffff" stroke-linecap="butt" stroke-linejoin="round" stroke-width="10.1583"/>
</g>
</g>
</svg>
